<svg xmlns="http://www.w3.org/2000/svg" xmlns:xlink="http://www.w3.org/1999/xlink" width="105" height="18" class="svg"><title>badge-for-git. Style: 17</title><desc>char-height: 18 char_width : 9 font-size  : 15</desc><path fill="#434343" d="M9,0 9,0 a9,9 0 0,1 0,18 L9,18 a9,9 0 0,1 0,-18"></path><text fill="#FF0" x="9" y="14" font-family="DejaVu Sans Mono, Source code variable, monospace" font-size="15"></text><path fill="#434343" d="M32,0 68,0 a9,9 0 0,1 0,18 L32,18 a9,9 0 0,1 0,-18"></path><text fill="#FF0" x="32" y="14" font-family="DejaVu Sans Mono, Source code variable, monospace" font-size="15">HTML</text><path fill="#434343" d="M91,0 91,0 a9,9 0 0,1 0,18 L91,18 a9,9 0 0,1 0,-18"></path><text fill="#FF0" x="91" y="14" font-family="DejaVu Sans Mono, Source code variable, monospace" font-size="15"></text></svg>
