<svg xmlns="http://www.w3.org/2000/svg" xmlns:xlink="http://www.w3.org/1999/xlink" width="449" height="36" class="svg"><title>badge-for-git. Style: 17</title><desc>char-height: 36 char_width : 18 font-size  : 30</desc><path fill="#CB0000" d="M18,0 18,0 a18,18 0 0,1 0,36 L18,36 a18,18 0 0,1 0,-36"></path><text fill="#FFF" x="18" y="29" font-family="DejaVu Sans Mono, Source code variable, monospace" font-size="30"></text><path fill="#CB0000" d="M59,0 59,0 a18,18 0 0,1 0,36 L59,36 a18,18 0 0,1 0,-36"></path><text fill="#FFF" x="59" y="29" font-family="DejaVu Sans Mono, Source code variable, monospace" font-size="30"></text><path fill="#CB0000" d="M100,0 100,0 a18,18 0 0,1 0,36 L100,36 a18,18 0 0,1 0,-36"></path><text fill="#FFF" x="100" y="29" font-family="DejaVu Sans Mono, Source code variable, monospace" font-size="30"></text><path fill="#CB0000" d="M141,0 303,0 a18,18 0 0,1 0,36 L141,36 a18,18 0 0,1 0,-36"></path><text fill="#FFF" x="141" y="29" font-family="DejaVu Sans Mono, Source code variable, monospace" font-size="30">jsMyAdmin</text><path fill="#CB0000" d="M344,0 344,0 a18,18 0 0,1 0,36 L344,36 a18,18 0 0,1 0,-36"></path><text fill="#FFF" x="344" y="29" font-family="DejaVu Sans Mono, Source code variable, monospace" font-size="30"></text><path fill="#CB0000" d="M385,0 385,0 a18,18 0 0,1 0,36 L385,36 a18,18 0 0,1 0,-36"></path><text fill="#FFF" x="385" y="29" font-family="DejaVu Sans Mono, Source code variable, monospace" font-size="30"></text><path fill="#CB0000" d="M426,0 426,0 a18,18 0 0,1 0,36 L426,36 a18,18 0 0,1 0,-36"></path><text fill="#FFF" x="426" y="29" font-family="DejaVu Sans Mono, Source code variable, monospace" font-size="30"></text></svg>
